<svg width="36" height="36" viewBox="0 0 36 36" fill="none" xmlns="http://www.w3.org/2000/svg">
<g clip-path="url(#clip0_191_5038)">
<path d="M33.6202 17.53C30.2502 11.3 24.3402 7.53003 17.8002 7.53003C11.2602 7.53003 5.34021 11.3 2.00021 17.53L1.72021 18L1.98021 18.48C5.35021 24.71 11.2602 28.48 17.8002 28.48C24.3402 28.48 30.2602 24.76 33.6202 18.48L33.8802 18L33.6202 17.53ZM17.8002 26.43C12.1702 26.43 7.00021 23.29 4.00021 18C7.00021 12.71 12.1702 9.57003 17.8002 9.57003C23.4302 9.57003 28.5402 12.72 31.5902 18C28.5402 23.29 23.4202 26.43 17.8002 26.43Z" fill="#021DA5"/>
<path d="M18.0902 11.17C16.7343 11.1799 15.4118 11.5914 14.2896 12.3525C13.1675 13.1136 12.296 14.1901 11.7854 15.4462C11.2747 16.7023 11.1477 18.0815 11.4205 19.4097C11.6933 20.738 12.3535 21.9555 13.3178 22.9087C14.2822 23.8619 15.5074 24.5079 16.8387 24.7652C18.17 25.0225 19.5476 24.8794 20.7977 24.3542C22.0477 23.8289 23.1141 22.945 23.8621 21.8141C24.61 20.6831 25.0061 19.3559 25.0002 18C24.9963 17.0974 24.8143 16.2045 24.4647 15.3724C24.115 14.5403 23.6046 13.7854 22.9627 13.1509C22.3208 12.5164 21.56 12.0148 20.7238 11.6749C19.8877 11.335 18.9928 11.1634 18.0902 11.17ZM18.0902 22.89C17.1325 22.8801 16.199 22.5875 15.407 22.0488C14.6151 21.5101 13.9999 20.7495 13.6389 19.8623C13.2778 18.9752 13.1869 18.0011 13.3776 17.0625C13.5683 16.1239 14.0321 15.2626 14.7108 14.5867C15.3894 13.9108 16.2527 13.4505 17.192 13.2636C18.1314 13.0768 19.1051 13.1716 19.9907 13.5363C20.8764 13.901 21.6346 14.5192 22.17 15.3134C22.7054 16.1075 22.9942 17.0422 23.0002 18C23.0029 18.6446 22.8776 19.2833 22.6315 19.8791C22.3854 20.4749 22.0236 21.0159 21.5668 21.4708C21.1101 21.9256 20.5676 22.2853 19.9708 22.5289C19.374 22.7726 18.7348 22.8953 18.0902 22.89Z" fill="#021DA5"/>
</g>
<defs>
<clipPath id="clip0_191_5038">
<rect width="36" height="36" fill="white"/>
</clipPath>
</defs>
</svg>
